<svg xmlns="http://www.w3.org/2000/svg" viewBox="0 0 330 200"><g><g><g><g><g><line x1="30" x2="25" y1="176" y2="176" fill="#000" stroke="#CCC" stroke-width="1" style="visibility:inherit"/><line x1="30" x2="25" y1="160" y2="160" fill="#000" stroke="#CCC" stroke-width="1" style="visibility:inherit"/><line x1="30" x2="25" y1="144" y2="144" fill="#000" stroke="#CCC" stroke-width="1" style="visibility:inherit"/><line x1="30" x2="25" y1="128" y2="128" fill="#000" stroke="#CCC" stroke-width="1" style="visibility:inherit"/><line x1="30" x2="25" y1="112" y2="112" fill="#000" stroke="#CCC" stroke-width="1" style="visibility:inherit"/><line x1="30" x2="25" y1="96" y2="96" fill="#000" stroke="#CCC" stroke-width="1" style="visibility:inherit"/><line x1="30" x2="25" y1="80" y2="80" fill="#000" stroke="#CCC" stroke-width="1" style="visibility:inherit"/><line x1="30" x2="25" y1="64" y2="64" fill="#000" stroke="#CCC" stroke-width="1" style="visibility:inherit"/><line x1="30" x2="25" y1="48" y2="48" fill="#000" stroke="#CCC" stroke-width="1" style="visibility:inherit"/><line x1="30" x2="25" y1="32" y2="32" fill="#000" stroke="#CCC" stroke-width="1" style="visibility:inherit"/><line x1="30" x2="25" y1="16" y2="16" fill="#000" stroke="#CCC" stroke-width="1" style="visibility:inherit"/><line x1="30" x2="25" y1="0" y2="0" fill="#000" stroke="#CCC" stroke-width="1" style="visibility:inherit"/></g><g><text x="0" y="176" fill="#32313F" stroke="none" stroke-width="1" dx="0em" dy=".3em" transform="translate(20, 0)" style="text-anchor:end;visibility:hidden;font-family:Roboto,sans-serif;font-size:12px;font-weight:200">-2</text><text x="0" y="160" fill="#32313F" stroke="none" stroke-width="1" dx="0em" dy=".3em" transform="translate(20, 0)" style="text-anchor:end;visibility:inherit;font-family:Roboto,sans-serif;font-size:12px;font-weight:200">0</text><text x="0" y="144" fill="#32313F" stroke="none" stroke-width="1" dx="0em" dy=".3em" transform="translate(20, 0)" style="text-anchor:end;visibility:hidden;font-family:Roboto,sans-serif;font-size:12px;font-weight:200">2</text><text x="0" y="128" fill="#32313F" stroke="none" stroke-width="1" dx="0em" dy=".3em" transform="translate(20, 0)" style="text-anchor:end;visibility:inherit;font-family:Roboto,sans-serif;font-size:12px;font-weight:200">4</text><text x="0" y="112" fill="#32313F" stroke="none" stroke-width="1" dx="0em" dy=".3em" transform="translate(20, 0)" style="text-anchor:end;visibility:hidden;font-family:Roboto,sans-serif;font-size:12px;font-weight:200">6</text><text x="0" y="96" fill="#32313F" stroke="none" stroke-width="1" dx="0em" dy=".3em" transform="translate(20, 0)" style="text-anchor:end;visibility:inherit;font-family:Roboto,sans-serif;font-size:12px;font-weight:200">8</text><text x="0" y="80" fill="#32313F" stroke="none" stroke-width="1" dx="0em" dy=".3em" transform="translate(20, 0)" style="text-anchor:end;visibility:hidden;font-family:Roboto,sans-serif;font-size:12px;font-weight:200">10</text><text x="0" y="64" fill="#32313F" stroke="none" stroke-width="1" dx="0em" dy=".3em" transform="translate(20, 0)" style="text-anchor:end;visibility:inherit;font-family:Roboto,sans-serif;font-size:12px;font-weight:200">12</text><text x="0" y="48" fill="#32313F" stroke="none" stroke-width="1" dx="0em" dy=".3em" transform="translate(20, 0)" style="text-anchor:end;visibility:hidden;font-family:Roboto,sans-serif;font-size:12px;font-weight:200">14</text><text x="0" y="32" fill="#32313F" stroke="none" stroke-width="1" dx="0em" dy=".3em" transform="translate(20, 0)" style="text-anchor:end;visibility:inherit;font-family:Roboto,sans-serif;font-size:12px;font-weight:200">16</text><text x="0" y="16" fill="#32313F" stroke="none" stroke-width="1" dx="0em" dy=".3em" transform="translate(20, 0)" style="text-anchor:end;visibility:hidden;font-family:Roboto,sans-serif;font-size:12px;font-weight:200">18</text><text x="0" y="0" fill="#32313F" stroke="none" stroke-width="1" dx="0em" dy=".3em" transform="translate(20, 0)" style="text-anchor:end;visibility:hidden;font-family:Roboto,sans-serif;font-size:12px;font-weight:200">20</text></g><line x1="30" x2="30" y1="0" y2="176" fill="#000" stroke="#CCC" stroke-width="1"/></g></g><g clip-path="url(#clip_0)" transform="translate(30, 0)"><clipPath id="clip_0"><rect width="300" height="176"/></clipPath><g><g><g><line x1="0" x2="0" y1="0" y2="176" fill="#000" stroke="#3C3C3C" stroke-width="1" opacity=".25"/><line x1="30" x2="30" y1="0" y2="176" fill="#000" stroke="#3C3C3C" stroke-width="1" opacity=".25"/><line x1="60" x2="60" y1="0" y2="176" fill="#000" stroke="#3C3C3C" stroke-width="1" opacity=".25"/><line x1="90" x2="90" y1="0" y2="176" fill="#000" stroke="#3C3C3C" stroke-width="1" opacity=".25"/><line x1="120" x2="120" y1="0" y2="176" fill="#000" stroke="#3C3C3C" stroke-width="1" opacity=".25"/><line x1="150" x2="150" y1="0" y2="176" fill="#000" stroke="#3C3C3C" stroke-width="1" opacity=".25"/><line x1="180" x2="180" y1="0" y2="176" fill="#000" stroke="#3C3C3C" stroke-width="1" opacity=".25"/><line x1="210" x2="210" y1="0" y2="176" fill="#000" stroke="#3C3C3C" stroke-width="1" opacity=".25"/><line x1="240" x2="240" y1="0" y2="176" fill="#000" stroke="#3C3C3C" stroke-width="1" opacity=".25"/><line x1="270" x2="270" y1="0" y2="176" fill="#000" stroke="#3C3C3C" stroke-width="1" opacity=".25"/><line x1="300" x2="300" y1="0" y2="176" fill="#000" stroke="#3C3C3C" stroke-width="1" opacity=".25"/></g><g><line x1="0" x2="300" y1="176" y2="176" fill="#000" stroke="#3C3C3C" stroke-width="1" opacity=".25"/><line x1="0" x2="300" y1="160" y2="160" fill="#000" stroke="#3C3C3C" stroke-width="1" opacity=".25"/><line x1="0" x2="300" y1="144" y2="144" fill="#000" stroke="#3C3C3C" stroke-width="1" opacity=".25"/><line x1="0" x2="300" y1="128" y2="128" fill="#000" stroke="#3C3C3C" stroke-width="1" opacity=".25"/><line x1="0" x2="300" y1="112" y2="112" fill="#000" stroke="#3C3C3C" stroke-width="1" opacity=".25"/><line x1="0" x2="300" y1="96" y2="96" fill="#000" stroke="#3C3C3C" stroke-width="1" opacity=".25"/><line x1="0" x2="300" y1="80" y2="80" fill="#000" stroke="#3C3C3C" stroke-width="1" opacity=".25"/><line x1="0" x2="300" y1="64" y2="64" fill="#000" stroke="#3C3C3C" stroke-width="1" opacity=".25"/><line x1="0" x2="300" y1="48" y2="48" fill="#000" stroke="#3C3C3C" stroke-width="1" opacity=".25"/><line x1="0" x2="300" y1="32" y2="32" fill="#000" stroke="#3C3C3C" stroke-width="1" opacity=".25"/><line x1="0" x2="300" y1="16" y2="16" fill="#000" stroke="#3C3C3C" stroke-width="1" opacity=".25"/><line x1="0" x2="300" y1="0" y2="0" fill="#000" stroke="#3C3C3C" stroke-width="1" opacity=".25"/></g></g></g><g><g><line x1="0" x2="300" y1="160" y2="160" fill="#000" stroke="#999" stroke-width="1.5"/></g></g><g><g><line x1="30" x2="30" y1="0" y2="176" fill="#000" stroke="#999" stroke-width="1.5"/></g></g><g><g><g><g><g><path style="fill:none" fill="none" stroke="#FF7043" stroke-width="2" d="M36,-61.11515808105469L39,15.042617797851554L42.00000000000001,60.86607360839844L45,78.7142105102539L48,88.40843200683594L51.00000000000001,95.37123107910156L54,100.47831726074219L57,104.18672943115233L60,107.05678939819336L63,105.79647445678712L66,107.78365707397462L69,110.54560089111327L72,112.62514114379883L75,114.34518814086913L78,115.83308029174806L81,117.1436080932617L84.00000000000001,118.30812072753906L87,119.36248016357422L90,120.32514190673827L93,121.20217895507812L96,122.0157699584961L99,122.77657318115234L102.00000000000001,115.1373176574707L105,117.47670364379881L108,118.99327850341795L111,120.22240447998047L114,121.27883529663086L117,122.21999740600586L120,123.07852172851562L122.99999999999999,123.85543441772462L126,124.58591842651367L129,125.25654220581055L132,125.87411880493164L135,126.46749114990233L138,118.51244354248045L141,120.66169738769531L144,121.99763107299805L147,123.07135391235352L150,123.99210739135744L153,124.8112564086914L156,125.57059097290039L159,126.25157546997072L162,126.88917922973634L165,127.48463439941406L168.00000000000003,128.02709770202637L170.99999999999997,128.5505256652832L174,120.32025146484376L177,122.341552734375L180,123.59136962890626L183,124.58658218383789L186,125.44557571411134L189,126.20126724243164L192,126.89238357543945L195,127.53141784667969L198,128.11516571044922L201,128.6687889099121L204.00000000000003,129.17992782592773L206.99999999999997,129.66660499572754L210,121.64378356933594L213,122.40612030029298L216,123.96654891967775L219,125.05637741088869L222,125.94499969482423L225,126.71963882446288L228,127.41362380981445L231,128.05394172668457L234,128.63803672790527L237,129.1856288909912L240,129.7000331878662L243.00000000000003,130.18152236938477L245.99999999999997,130.64559173583984L249,122.90435791015624L252,123.55425262451172L255,125.04335021972656L258,126.06269073486327L261,126.91469192504884L264,127.65011978149414L267,128.30373001098633L270,128.89842796325684L273,129.46631240844727L276,129.9945182800293L279,130.47613143920898L282,130.938720703125L285,131.3725528717041"/></g></g></g></g></g></g><g clip-path="url(#clip_1)" transform="translate(30, 176)"><clipPath id="clip_1"><rect width="300" height="24"/></clipPath><g><g><line x1="0" x2="0" y1="0" y2="5" fill="#000" stroke="#CCC" stroke-width="1" style="visibility:inherit"/><line x1="30" x2="30" y1="0" y2="5" fill="#000" stroke="#CCC" stroke-width="1" style="visibility:inherit"/><line x1="60" x2="60" y1="0" y2="5" fill="#000" stroke="#CCC" stroke-width="1" style="visibility:inherit"/><line x1="90" x2="90" y1="0" y2="5" fill="#000" stroke="#CCC" stroke-width="1" style="visibility:inherit"/><line x1="120" x2="120" y1="0" y2="5" fill="#000" stroke="#CCC" stroke-width="1" style="visibility:inherit"/><line x1="150" x2="150" y1="0" y2="5" fill="#000" stroke="#CCC" stroke-width="1" style="visibility:inherit"/><line x1="180" x2="180" y1="0" y2="5" fill="#000" stroke="#CCC" stroke-width="1" style="visibility:inherit"/><line x1="210" x2="210" y1="0" y2="5" fill="#000" stroke="#CCC" stroke-width="1" style="visibility:inherit"/><line x1="240" x2="240" y1="0" y2="5" fill="#000" stroke="#CCC" stroke-width="1" style="visibility:inherit"/><line x1="270" x2="270" y1="0" y2="5" fill="#000" stroke="#CCC" stroke-width="1" style="visibility:inherit"/><line x1="300" x2="300" y1="0" y2="5" fill="#000" stroke="#CCC" stroke-width="1" style="visibility:inherit"/></g><g><text x="0" y="0" fill="#32313F" stroke="none" stroke-width="1" dx="0em" dy=".95em" transform="translate(0, 8)" style="text-anchor:middle;visibility:hidden;font-family:Roboto,sans-serif;font-size:12px;font-weight:200">-10</text><text x="30" y="0" fill="#32313F" stroke="none" stroke-width="1" dx="0em" dy=".95em" transform="translate(0, 8)" style="text-anchor:middle;visibility:inherit;font-family:Roboto,sans-serif;font-size:12px;font-weight:200">0</text><text x="60" y="0" fill="#32313F" stroke="none" stroke-width="1" dx="0em" dy=".95em" transform="translate(0, 8)" style="text-anchor:middle;visibility:inherit;font-family:Roboto,sans-serif;font-size:12px;font-weight:200">10</text><text x="90" y="0" fill="#32313F" stroke="none" stroke-width="1" dx="0em" dy=".95em" transform="translate(0, 8)" style="text-anchor:middle;visibility:inherit;font-family:Roboto,sans-serif;font-size:12px;font-weight:200">20</text><text x="120" y="0" fill="#32313F" stroke="none" stroke-width="1" dx="0em" dy=".95em" transform="translate(0, 8)" style="text-anchor:middle;visibility:inherit;font-family:Roboto,sans-serif;font-size:12px;font-weight:200">30</text><text x="150" y="0" fill="#32313F" stroke="none" stroke-width="1" dx="0em" dy=".95em" transform="translate(0, 8)" style="text-anchor:middle;visibility:inherit;font-family:Roboto,sans-serif;font-size:12px;font-weight:200">40</text><text x="180" y="0" fill="#32313F" stroke="none" stroke-width="1" dx="0em" dy=".95em" transform="translate(0, 8)" style="text-anchor:middle;visibility:inherit;font-family:Roboto,sans-serif;font-size:12px;font-weight:200">50</text><text x="210" y="0" fill="#32313F" stroke="none" stroke-width="1" dx="0em" dy=".95em" transform="translate(0, 8)" style="text-anchor:middle;visibility:inherit;font-family:Roboto,sans-serif;font-size:12px;font-weight:200">60</text><text x="240" y="0" fill="#32313F" stroke="none" stroke-width="1" dx="0em" dy=".95em" transform="translate(0, 8)" style="text-anchor:middle;visibility:inherit;font-family:Roboto,sans-serif;font-size:12px;font-weight:200">70</text><text x="270" y="0" fill="#32313F" stroke="none" stroke-width="1" dx="0em" dy=".95em" transform="translate(0, 8)" style="text-anchor:middle;visibility:inherit;font-family:Roboto,sans-serif;font-size:12px;font-weight:200">80</text><text x="300" y="0" fill="#32313F" stroke="none" stroke-width="1" dx="0em" dy=".95em" transform="translate(0, 8)" style="text-anchor:middle;visibility:hidden;font-family:Roboto,sans-serif;font-size:12px;font-weight:200">90</text></g><line x1="0" x2="300" y1="0" y2="0" fill="#000" stroke="#CCC" stroke-width="1"/></g></g></g></g></svg>