<svg xmlns="http://www.w3.org/2000/svg" viewBox="0 0 330 200"><g><g><g><g><g><line x1="51.563" x2="46.563" y1="175.356" y2="175.356" fill="#000" stroke="#CCC" stroke-width="1" style="visibility:inherit"/><line x1="51.563" x2="46.563" y1="151.33" y2="151.33" fill="#000" stroke="#CCC" stroke-width="1" style="visibility:inherit"/><line x1="51.563" x2="46.563" y1="132.694" y2="132.694" fill="#000" stroke="#CCC" stroke-width="1" style="visibility:inherit"/><line x1="51.563" x2="46.563" y1="117.468" y2="117.468" fill="#000" stroke="#CCC" stroke-width="1" style="visibility:inherit"/><line x1="51.563" x2="46.563" y1="104.594" y2="104.594" fill="#000" stroke="#CCC" stroke-width="1" style="visibility:inherit"/><line x1="51.563" x2="46.563" y1="93.442" y2="93.442" fill="#000" stroke="#CCC" stroke-width="1" style="visibility:inherit"/><line x1="51.563" x2="46.563" y1="83.606" y2="83.606" fill="#000" stroke="#CCC" stroke-width="1" style="visibility:inherit"/><line x1="51.563" x2="46.563" y1="74.807" y2="74.807" fill="#000" stroke="#CCC" stroke-width="1" style="visibility:inherit"/><line x1="51.563" x2="46.563" y1="16.919" y2="16.919" fill="#000" stroke="#CCC" stroke-width="1" style="visibility:inherit"/></g><g><text x="0" y="175.356" fill="#32313F" stroke="none" stroke-width="1" dx="0em" dy=".3em" transform="translate(41.5625, 0)" style="text-anchor:end;visibility:hidden;font-family:Roboto,sans-serif;font-size:12px;font-weight:200">3e-5</text><text x="0" y="151.33" fill="#32313F" stroke="none" stroke-width="1" dx="0em" dy=".3em" transform="translate(41.5625, 0)" style="text-anchor:end;visibility:inherit;font-family:Roboto,sans-serif;font-size:12px;font-weight:200">4e-5</text><text x="0" y="132.694" fill="#32313F" stroke="none" stroke-width="1" dx="0em" dy=".3em" transform="translate(41.5625, 0)" style="text-anchor:end;visibility:hidden;font-family:Roboto,sans-serif;font-size:12px;font-weight:200">5e-5</text><text x="0" y="117.468" fill="#32313F" stroke="none" stroke-width="1" dx="0em" dy=".3em" transform="translate(41.5625, 0)" style="text-anchor:end;visibility:hidden;font-family:Roboto,sans-serif;font-size:12px;font-weight:200">6e-5</text><text x="0" y="104.594" fill="#32313F" stroke="none" stroke-width="1" dx="0em" dy=".3em" transform="translate(41.5625, 0)" style="text-anchor:end;visibility:inherit;font-family:Roboto,sans-serif;font-size:12px;font-weight:200">7e-5</text><text x="0" y="93.442" fill="#32313F" stroke="none" stroke-width="1" dx="0em" dy=".3em" transform="translate(41.5625, 0)" style="text-anchor:end;visibility:hidden;font-family:Roboto,sans-serif;font-size:12px;font-weight:200">8e-5</text><text x="0" y="83.606" fill="#32313F" stroke="none" stroke-width="1" dx="0em" dy=".3em" transform="translate(41.5625, 0)" style="text-anchor:end;visibility:hidden;font-family:Roboto,sans-serif;font-size:12px;font-weight:200">9e-5</text><text x="0" y="74.807" fill="#32313F" stroke="none" stroke-width="1" dx="0em" dy=".3em" transform="translate(41.5625, 0)" style="text-anchor:end;visibility:inherit;font-family:Roboto,sans-serif;font-size:12px;font-weight:200">1e-4</text><text x="0" y="16.919" fill="#32313F" stroke="none" stroke-width="1" dx="0em" dy=".3em" transform="translate(41.5625, 0)" style="text-anchor:end;visibility:hidden;font-family:Roboto,sans-serif;font-size:12px;font-weight:200">2e-4</text></g><line x1="51.563" x2="51.563" y1="0" y2="178" fill="#000" stroke="#CCC" stroke-width="1"/></g></g><g clip-path="url(#clip_0)" transform="translate(51, 0)"><clipPath id="clip_0"><rect width="278" height="178"/></clipPath><g><g><g><line x1=".896" x2=".896" y1="0" y2="178" fill="#000" stroke="#3C3C3C" stroke-width="1" opacity=".25"/><line x1="37.636" x2="37.636" y1="0" y2="178" fill="#000" stroke="#3C3C3C" stroke-width="1" opacity=".25"/><line x1="74.376" x2="74.376" y1="0" y2="178" fill="#000" stroke="#3C3C3C" stroke-width="1" opacity=".25"/><line x1="111.116" x2="111.116" y1="0" y2="178" fill="#000" stroke="#3C3C3C" stroke-width="1" opacity=".25"/><line x1="147.856" x2="147.856" y1="0" y2="178" fill="#000" stroke="#3C3C3C" stroke-width="1" opacity=".25"/><line x1="184.596" x2="184.596" y1="0" y2="178" fill="#000" stroke="#3C3C3C" stroke-width="1" opacity=".25"/><line x1="221.336" x2="221.336" y1="0" y2="178" fill="#000" stroke="#3C3C3C" stroke-width="1" opacity=".25"/><line x1="258.076" x2="258.076" y1="0" y2="178" fill="#000" stroke="#3C3C3C" stroke-width="1" opacity=".25"/></g><g><line x1="0" x2="278.438" y1="175.356" y2="175.356" fill="#000" stroke="#3C3C3C" stroke-width="1" opacity=".25"/><line x1="0" x2="278.438" y1="151.33" y2="151.33" fill="#000" stroke="#3C3C3C" stroke-width="1" opacity=".25"/><line x1="0" x2="278.438" y1="132.694" y2="132.694" fill="#000" stroke="#3C3C3C" stroke-width="1" opacity=".25"/><line x1="0" x2="278.438" y1="117.468" y2="117.468" fill="#000" stroke="#3C3C3C" stroke-width="1" opacity=".25"/><line x1="0" x2="278.438" y1="104.594" y2="104.594" fill="#000" stroke="#3C3C3C" stroke-width="1" opacity=".25"/><line x1="0" x2="278.438" y1="93.442" y2="93.442" fill="#000" stroke="#3C3C3C" stroke-width="1" opacity=".25"/><line x1="0" x2="278.438" y1="83.606" y2="83.606" fill="#000" stroke="#3C3C3C" stroke-width="1" opacity=".25"/><line x1="0" x2="278.438" y1="74.807" y2="74.807" fill="#000" stroke="#3C3C3C" stroke-width="1" opacity=".25"/><line x1="0" x2="278.438" y1="16.919" y2="16.919" fill="#000" stroke="#3C3C3C" stroke-width="1" opacity=".25"/></g></g></g><g><g><line x1="37.636" x2="37.636" y1="0" y2="178" fill="#000" stroke="#999" stroke-width="1.5"/></g></g><g><g><g><g><g><path style="fill:none" fill="none" stroke="#FF7043" stroke-width="2" d="M37.6358903945925,178.3321081220595L39.47289281412164,120.44424359537913L41.30989523365078,86.58201709874805L43.14689765317992,62.556379068698746L44.983900072709055,43.920655421472915L46.82090249223819,28.69415257206766L48.65790491176733,18.95332713546385L50.494907331296474,24.529228581602396L52.331909750825616,29.447527703785532L54.16891217035475,33.84710510481315L56.005914589883886,37.82698822838397L57.84291700941303,41.46035486225331L59.67991942894216,44.80271359648397L61.5169218484713,47.897264263948784L63.35392426800045,50.77821612365115L65.19092668752958,53.47316929553966L67.02792910705872,56.00468155401751L68.86493152658787,58.391470224956265L70.70193394611701,60.64915954924585L72.53893636564614,62.79103351668454L74.37593878517528,64.82837699493976L76.2129412047044,66.77092502247456L78.04994362423356,68.62711269019974L79.88694604376269,70.40429018695127L81.72394846329183,72.10889335637127L83.56095088282098,73.74664894716348L85.3979533023501,75.32257466694358L87.23495572187926,76.84119166214425L89.07195814140839,78.30650887567778L90.90896056093753,79.7221439305709L92.74596298046666,81.0913583301975L94.5829653999958,82.41709310828278L96.41996781952496,83.70203670813274L98.25697023905408,84.94861695457298L100.09397265858323,86.1590605795018L101.93097507811235,87.33539223046593L103.7679774976415,88.47950171777538L105.60497991717062,89.59309684412833L107.44198233669978,90.67776531851277L109.27898475622892,91.73496963149354L111.11598717575805,92.76605854158328L112.95298959528719,93.77231166700349L114.78999201481632,94.7548807384793L116.62699443434548,95.71485275506437L118.4639968538746,96.65325561828998L120.30099927340375,97.57104903723406L122.13800169293287,98.46908332991839L123.97500411246202,99.34821938893371L125.81200653199117,100.20921811855453L127.6490089515203,101.05282305245464L129.48601137104944,101.87973938381363L131.32301379057859,102.69057812316439L133.16001621010773,103.48598587137153L134.99701862963684,104.26651441741276L136.83402104916598,105.03271874610411L138.67102346869515,105.78512879062917L140.5080258882243,106.52421978536435L142.3450283077534,107.25045295569524L144.18203072728255,107.96425532317906L146.01903314681167,108.66608065033154L147.85603556634084,109.35628980636113L149.69303798586998,110.03529394956834L151.5300404053991,110.70342477024978L153.36704282492826,111.36103382222005L155.20404524445738,112.00844498538028L157.04104766398652,112.64597164884539L158.87805008351566,113.27391552664392L160.7150525030448,113.89254608069791L162.55205492257394,114.50215729777283L164.38905734210306,115.10299905544085L166.22605976163223,115.69530467684302L168.06306218116137,116.27933475163651L169.90006460069048,116.85530219560512L171.73706702021963,117.42343591400768L173.57406943974877,117.98395035213015L175.4110718592779,118.53702407592625L177.24807427880705,119.08289113473641L179.0850766983362,119.62169704053922L180.92207911786534,120.15363674334051L182.75908153739445,120.67889804336492L184.5960839569236,121.19762928540848L186.43308637645276,121.70999112751815L188.27008879598188,122.21614595695972L190.10709121551102,122.71624152162015L191.94409363504016,123.21041568223129L193.7810960545693,123.69881227628389"/></g></g></g></g></g></g><g clip-path="url(#clip_1)" transform="translate(51, 178)"><clipPath id="clip_1"><rect width="278" height="22"/></clipPath><g><g><line x1=".896" x2=".896" y1="0" y2="5" fill="#000" stroke="#CCC" stroke-width="1" style="visibility:inherit"/><line x1="37.636" x2="37.636" y1="0" y2="5" fill="#000" stroke="#CCC" stroke-width="1" style="visibility:inherit"/><line x1="74.376" x2="74.376" y1="0" y2="5" fill="#000" stroke="#CCC" stroke-width="1" style="visibility:inherit"/><line x1="111.116" x2="111.116" y1="0" y2="5" fill="#000" stroke="#CCC" stroke-width="1" style="visibility:inherit"/><line x1="147.856" x2="147.856" y1="0" y2="5" fill="#000" stroke="#CCC" stroke-width="1" style="visibility:inherit"/><line x1="184.596" x2="184.596" y1="0" y2="5" fill="#000" stroke="#CCC" stroke-width="1" style="visibility:inherit"/><line x1="221.336" x2="221.336" y1="0" y2="5" fill="#000" stroke="#CCC" stroke-width="1" style="visibility:inherit"/><line x1="258.076" x2="258.076" y1="0" y2="5" fill="#000" stroke="#CCC" stroke-width="1" style="visibility:inherit"/></g><g><text x=".896" y="0" fill="#32313F" stroke="none" stroke-width="1" dx="0em" dy=".95em" transform="translate(0, 8)" style="text-anchor:middle;visibility:hidden;font-family:Roboto,sans-serif;font-size:12px;font-weight:200">-20</text><text x="37.636" y="0" fill="#32313F" stroke="none" stroke-width="1" dx="0em" dy=".95em" transform="translate(0, 8)" style="text-anchor:middle;visibility:inherit;font-family:Roboto,sans-serif;font-size:12px;font-weight:200">0</text><text x="74.376" y="0" fill="#32313F" stroke="none" stroke-width="1" dx="0em" dy=".95em" transform="translate(0, 8)" style="text-anchor:middle;visibility:inherit;font-family:Roboto,sans-serif;font-size:12px;font-weight:200">20</text><text x="111.116" y="0" fill="#32313F" stroke="none" stroke-width="1" dx="0em" dy=".95em" transform="translate(0, 8)" style="text-anchor:middle;visibility:inherit;font-family:Roboto,sans-serif;font-size:12px;font-weight:200">40</text><text x="147.856" y="0" fill="#32313F" stroke="none" stroke-width="1" dx="0em" dy=".95em" transform="translate(0, 8)" style="text-anchor:middle;visibility:inherit;font-family:Roboto,sans-serif;font-size:12px;font-weight:200">60</text><text x="184.596" y="0" fill="#32313F" stroke="none" stroke-width="1" dx="0em" dy=".95em" transform="translate(0, 8)" style="text-anchor:middle;visibility:inherit;font-family:Roboto,sans-serif;font-size:12px;font-weight:200">80</text><text x="221.336" y="0" fill="#32313F" stroke="none" stroke-width="1" dx="0em" dy=".95em" transform="translate(0, 8)" style="text-anchor:middle;visibility:inherit;font-family:Roboto,sans-serif;font-size:12px;font-weight:200">100</text><text x="258.076" y="0" fill="#32313F" stroke="none" stroke-width="1" dx="0em" dy=".95em" transform="translate(0, 8)" style="text-anchor:middle;visibility:inherit;font-family:Roboto,sans-serif;font-size:12px;font-weight:200">120</text></g><line x1="0" x2="278.438" y1="0" y2="0" fill="#000" stroke="#CCC" stroke-width="1"/></g></g></g></g></svg>