<svg xmlns="http://www.w3.org/2000/svg" viewBox="0 0 330 200"><g><g><g><g><g><line x1="70" x2="65" y1="173.34" y2="173.34" fill="#000" stroke="#CCC" stroke-width="1" style="visibility:inherit"/><line x1="70" x2="65" y1="147.804" y2="147.804" fill="#000" stroke="#CCC" stroke-width="1" style="visibility:inherit"/><line x1="70" x2="65" y1="122.268" y2="122.268" fill="#000" stroke="#CCC" stroke-width="1" style="visibility:inherit"/><line x1="70" x2="65" y1="96.732" y2="96.732" fill="#000" stroke="#CCC" stroke-width="1" style="visibility:inherit"/><line x1="70" x2="65" y1="71.196" y2="71.196" fill="#000" stroke="#CCC" stroke-width="1" style="visibility:inherit"/><line x1="70" x2="65" y1="45.66" y2="45.66" fill="#000" stroke="#CCC" stroke-width="1" style="visibility:inherit"/><line x1="70" x2="65" y1="20.123" y2="20.123" fill="#000" stroke="#CCC" stroke-width="1" style="visibility:inherit"/></g><g><text x="0" y="173.34" fill="#32313F" stroke="none" stroke-width="1" dx="0em" dy=".3em" transform="translate(60, 0)" style="text-anchor:end;visibility:hidden;font-family:Roboto,sans-serif;font-size:12px;font-weight:200">-5e-5</text><text x="0" y="147.804" fill="#32313F" stroke="none" stroke-width="1" dx="0em" dy=".3em" transform="translate(60, 0)" style="text-anchor:end;visibility:inherit;font-family:Roboto,sans-serif;font-size:12px;font-weight:200">0</text><text x="0" y="122.268" fill="#32313F" stroke="none" stroke-width="1" dx="0em" dy=".3em" transform="translate(60, 0)" style="text-anchor:end;visibility:inherit;font-family:Roboto,sans-serif;font-size:12px;font-weight:200">5e-5</text><text x="0" y="96.732" fill="#32313F" stroke="none" stroke-width="1" dx="0em" dy=".3em" transform="translate(60, 0)" style="text-anchor:end;visibility:inherit;font-family:Roboto,sans-serif;font-size:12px;font-weight:200">1e-4</text><text x="0" y="71.196" fill="#32313F" stroke="none" stroke-width="1" dx="0em" dy=".3em" transform="translate(60, 0)" style="text-anchor:end;visibility:inherit;font-family:Roboto,sans-serif;font-size:12px;font-weight:200">1.5e-4</text><text x="0" y="45.66" fill="#32313F" stroke="none" stroke-width="1" dx="0em" dy=".3em" transform="translate(60, 0)" style="text-anchor:end;visibility:inherit;font-family:Roboto,sans-serif;font-size:12px;font-weight:200">2e-4</text><text x="0" y="20.123" fill="#32313F" stroke="none" stroke-width="1" dx="0em" dy=".3em" transform="translate(60, 0)" style="text-anchor:end;visibility:inherit;font-family:Roboto,sans-serif;font-size:12px;font-weight:200">2.5e-4</text></g><line x1="70" x2="70" y1="0" y2="176" fill="#000" stroke="#CCC" stroke-width="1"/></g></g><g clip-path="url(#clip_0)" transform="translate(70, 0)"><clipPath id="clip_0"><rect width="260" height="176"/></clipPath><g><g><g><line x1=".426" x2=".426" y1="0" y2="176" fill="#000" stroke="#3C3C3C" stroke-width="1" opacity=".25"/><line x1="19.288" x2="19.288" y1="0" y2="176" fill="#000" stroke="#3C3C3C" stroke-width="1" opacity=".25"/><line x1="38.15" x2="38.15" y1="0" y2="176" fill="#000" stroke="#3C3C3C" stroke-width="1" opacity=".25"/><line x1="57.012" x2="57.012" y1="0" y2="176" fill="#000" stroke="#3C3C3C" stroke-width="1" opacity=".25"/><line x1="75.874" x2="75.874" y1="0" y2="176" fill="#000" stroke="#3C3C3C" stroke-width="1" opacity=".25"/><line x1="94.736" x2="94.736" y1="0" y2="176" fill="#000" stroke="#3C3C3C" stroke-width="1" opacity=".25"/><line x1="113.598" x2="113.598" y1="0" y2="176" fill="#000" stroke="#3C3C3C" stroke-width="1" opacity=".25"/><line x1="132.46" x2="132.46" y1="0" y2="176" fill="#000" stroke="#3C3C3C" stroke-width="1" opacity=".25"/><line x1="151.321" x2="151.321" y1="0" y2="176" fill="#000" stroke="#3C3C3C" stroke-width="1" opacity=".25"/><line x1="170.183" x2="170.183" y1="0" y2="176" fill="#000" stroke="#3C3C3C" stroke-width="1" opacity=".25"/><line x1="189.045" x2="189.045" y1="0" y2="176" fill="#000" stroke="#3C3C3C" stroke-width="1" opacity=".25"/><line x1="207.907" x2="207.907" y1="0" y2="176" fill="#000" stroke="#3C3C3C" stroke-width="1" opacity=".25"/><line x1="226.769" x2="226.769" y1="0" y2="176" fill="#000" stroke="#3C3C3C" stroke-width="1" opacity=".25"/><line x1="245.631" x2="245.631" y1="0" y2="176" fill="#000" stroke="#3C3C3C" stroke-width="1" opacity=".25"/></g><g><line x1="0" x2="260" y1="173.34" y2="173.34" fill="#000" stroke="#3C3C3C" stroke-width="1" opacity=".25"/><line x1="0" x2="260" y1="147.804" y2="147.804" fill="#000" stroke="#3C3C3C" stroke-width="1" opacity=".25"/><line x1="0" x2="260" y1="122.268" y2="122.268" fill="#000" stroke="#3C3C3C" stroke-width="1" opacity=".25"/><line x1="0" x2="260" y1="96.732" y2="96.732" fill="#000" stroke="#3C3C3C" stroke-width="1" opacity=".25"/><line x1="0" x2="260" y1="71.196" y2="71.196" fill="#000" stroke="#3C3C3C" stroke-width="1" opacity=".25"/><line x1="0" x2="260" y1="45.66" y2="45.66" fill="#000" stroke="#3C3C3C" stroke-width="1" opacity=".25"/><line x1="0" x2="260" y1="20.123" y2="20.123" fill="#000" stroke="#3C3C3C" stroke-width="1" opacity=".25"/></g></g></g><g><g><line x1="0" x2="260" y1="147.804" y2="147.804" fill="#000" stroke="#999" stroke-width="1.5"/></g></g><g><g><line x1="38.15" x2="38.15" y1="0" y2="176" fill="#000" stroke="#999" stroke-width="1.5"/></g></g><g><g><g><g><g><path style="fill:none" fill="none" stroke="#FF7043" stroke-width="2" d="M38.149894940293535,116.44162961930117L47.58085937600155,85.07914532618395L57.011823811709554,53.71665731706784L66.44278824741757,22.354176739949487L75.87375268312557,11.603078509094953L85.30471711883358,23.470150659515614L94.73568155454159,32.69323015102364L104.16664599024959,40.12774735773153L113.59761042595761,46.28585610923969L123.0285748616656,51.49544128270029L132.45953929737362,55.97739671552024L141.8905037330816,59.886724152970984L151.32146816878964,63.33581769716895L160.75243260449764,66.40842853086556L170.18339704020562,69.16841981080793L179.61436147591363,71.66542241803381L189.04532591162163,73.93873675669522L198.47629034732964,76.01986706529458L207.90725478303767,77.93446116809977L217.33821921874568,79.70359621075667L226.76918365445368,81.34481913997539"/></g></g></g></g></g><g><g><circle cx="226.769" cy="81.345" r="4" fill="#FF7043" stroke="none" stroke-width="1" style="stroke:none"/></g></g></g><g clip-path="url(#clip_1)" transform="translate(70, 176)"><clipPath id="clip_1"><rect width="260" height="24"/></clipPath><g><g><line x1=".426" x2=".426" y1="0" y2="5" fill="#000" stroke="#CCC" stroke-width="1" style="visibility:inherit"/><line x1="19.288" x2="19.288" y1="0" y2="5" fill="#000" stroke="#CCC" stroke-width="1" style="visibility:inherit"/><line x1="38.15" x2="38.15" y1="0" y2="5" fill="#000" stroke="#CCC" stroke-width="1" style="visibility:inherit"/><line x1="57.012" x2="57.012" y1="0" y2="5" fill="#000" stroke="#CCC" stroke-width="1" style="visibility:inherit"/><line x1="75.874" x2="75.874" y1="0" y2="5" fill="#000" stroke="#CCC" stroke-width="1" style="visibility:inherit"/><line x1="94.736" x2="94.736" y1="0" y2="5" fill="#000" stroke="#CCC" stroke-width="1" style="visibility:inherit"/><line x1="113.598" x2="113.598" y1="0" y2="5" fill="#000" stroke="#CCC" stroke-width="1" style="visibility:inherit"/><line x1="132.46" x2="132.46" y1="0" y2="5" fill="#000" stroke="#CCC" stroke-width="1" style="visibility:inherit"/><line x1="151.321" x2="151.321" y1="0" y2="5" fill="#000" stroke="#CCC" stroke-width="1" style="visibility:inherit"/><line x1="170.183" x2="170.183" y1="0" y2="5" fill="#000" stroke="#CCC" stroke-width="1" style="visibility:inherit"/><line x1="189.045" x2="189.045" y1="0" y2="5" fill="#000" stroke="#CCC" stroke-width="1" style="visibility:inherit"/><line x1="207.907" x2="207.907" y1="0" y2="5" fill="#000" stroke="#CCC" stroke-width="1" style="visibility:inherit"/><line x1="226.769" x2="226.769" y1="0" y2="5" fill="#000" stroke="#CCC" stroke-width="1" style="visibility:inherit"/><line x1="245.631" x2="245.631" y1="0" y2="5" fill="#000" stroke="#CCC" stroke-width="1" style="visibility:inherit"/></g><g><text x=".426" y="0" fill="#32313F" stroke="none" stroke-width="1" dx="0em" dy=".95em" transform="translate(0, 8)" style="text-anchor:middle;visibility:hidden;font-family:Roboto,sans-serif;font-size:12px;font-weight:200">-4</text><text x="19.288" y="0" fill="#32313F" stroke="none" stroke-width="1" dx="0em" dy=".95em" transform="translate(0, 8)" style="text-anchor:middle;visibility:inherit;font-family:Roboto,sans-serif;font-size:12px;font-weight:200">-2</text><text x="38.15" y="0" fill="#32313F" stroke="none" stroke-width="1" dx="0em" dy=".95em" transform="translate(0, 8)" style="text-anchor:middle;visibility:inherit;font-family:Roboto,sans-serif;font-size:12px;font-weight:200">0</text><text x="57.012" y="0" fill="#32313F" stroke="none" stroke-width="1" dx="0em" dy=".95em" transform="translate(0, 8)" style="text-anchor:middle;visibility:inherit;font-family:Roboto,sans-serif;font-size:12px;font-weight:200">2</text><text x="75.874" y="0" fill="#32313F" stroke="none" stroke-width="1" dx="0em" dy=".95em" transform="translate(0, 8)" style="text-anchor:middle;visibility:inherit;font-family:Roboto,sans-serif;font-size:12px;font-weight:200">4</text><text x="94.736" y="0" fill="#32313F" stroke="none" stroke-width="1" dx="0em" dy=".95em" transform="translate(0, 8)" style="text-anchor:middle;visibility:inherit;font-family:Roboto,sans-serif;font-size:12px;font-weight:200">6</text><text x="113.598" y="0" fill="#32313F" stroke="none" stroke-width="1" dx="0em" dy=".95em" transform="translate(0, 8)" style="text-anchor:middle;visibility:inherit;font-family:Roboto,sans-serif;font-size:12px;font-weight:200">8</text><text x="132.46" y="0" fill="#32313F" stroke="none" stroke-width="1" dx="0em" dy=".95em" transform="translate(0, 8)" style="text-anchor:middle;visibility:inherit;font-family:Roboto,sans-serif;font-size:12px;font-weight:200">10</text><text x="151.321" y="0" fill="#32313F" stroke="none" stroke-width="1" dx="0em" dy=".95em" transform="translate(0, 8)" style="text-anchor:middle;visibility:inherit;font-family:Roboto,sans-serif;font-size:12px;font-weight:200">12</text><text x="170.183" y="0" fill="#32313F" stroke="none" stroke-width="1" dx="0em" dy=".95em" transform="translate(0, 8)" style="text-anchor:middle;visibility:inherit;font-family:Roboto,sans-serif;font-size:12px;font-weight:200">14</text><text x="189.045" y="0" fill="#32313F" stroke="none" stroke-width="1" dx="0em" dy=".95em" transform="translate(0, 8)" style="text-anchor:middle;visibility:inherit;font-family:Roboto,sans-serif;font-size:12px;font-weight:200">16</text><text x="207.907" y="0" fill="#32313F" stroke="none" stroke-width="1" dx="0em" dy=".95em" transform="translate(0, 8)" style="text-anchor:middle;visibility:inherit;font-family:Roboto,sans-serif;font-size:12px;font-weight:200">18</text><text x="226.769" y="0" fill="#32313F" stroke="none" stroke-width="1" dx="0em" dy=".95em" transform="translate(0, 8)" style="text-anchor:middle;visibility:inherit;font-family:Roboto,sans-serif;font-size:12px;font-weight:200">20</text><text x="245.631" y="0" fill="#32313F" stroke="none" stroke-width="1" dx="0em" dy=".95em" transform="translate(0, 8)" style="text-anchor:middle;visibility:inherit;font-family:Roboto,sans-serif;font-size:12px;font-weight:200">22</text></g><line x1="0" x2="260" y1="0" y2="0" fill="#000" stroke="#CCC" stroke-width="1"/></g></g></g></g></svg>