<svg xmlns="http://www.w3.org/2000/svg" viewBox="0 0 330 200"><g><g><g><g><g><line x1="30" x2="25" y1="163.832" y2="163.832" fill="#000" stroke="#CCC" stroke-width="1" style="visibility:inherit"/><line x1="30" x2="25" y1="146.808" y2="146.808" fill="#000" stroke="#CCC" stroke-width="1" style="visibility:inherit"/><line x1="30" x2="25" y1="129.784" y2="129.784" fill="#000" stroke="#CCC" stroke-width="1" style="visibility:inherit"/><line x1="30" x2="25" y1="112.759" y2="112.759" fill="#000" stroke="#CCC" stroke-width="1" style="visibility:inherit"/><line x1="30" x2="25" y1="95.735" y2="95.735" fill="#000" stroke="#CCC" stroke-width="1" style="visibility:inherit"/><line x1="30" x2="25" y1="78.711" y2="78.711" fill="#000" stroke="#CCC" stroke-width="1" style="visibility:inherit"/><line x1="30" x2="25" y1="61.687" y2="61.687" fill="#000" stroke="#CCC" stroke-width="1" style="visibility:inherit"/><line x1="30" x2="25" y1="44.663" y2="44.663" fill="#000" stroke="#CCC" stroke-width="1" style="visibility:inherit"/><line x1="30" x2="25" y1="27.639" y2="27.639" fill="#000" stroke="#CCC" stroke-width="1" style="visibility:inherit"/><line x1="30" x2="25" y1="10.615" y2="10.615" fill="#000" stroke="#CCC" stroke-width="1" style="visibility:inherit"/></g><g><text x="0" y="163.832" fill="#32313F" stroke="none" stroke-width="1" dx="0em" dy=".3em" transform="translate(20, 0)" style="text-anchor:end;visibility:inherit;font-family:Roboto,sans-serif;font-size:12px;font-weight:200">-5</text><text x="0" y="146.808" fill="#32313F" stroke="none" stroke-width="1" dx="0em" dy=".3em" transform="translate(20, 0)" style="text-anchor:end;visibility:hidden;font-family:Roboto,sans-serif;font-size:12px;font-weight:200">0</text><text x="0" y="129.784" fill="#32313F" stroke="none" stroke-width="1" dx="0em" dy=".3em" transform="translate(20, 0)" style="text-anchor:end;visibility:inherit;font-family:Roboto,sans-serif;font-size:12px;font-weight:200">5</text><text x="0" y="112.759" fill="#32313F" stroke="none" stroke-width="1" dx="0em" dy=".3em" transform="translate(20, 0)" style="text-anchor:end;visibility:hidden;font-family:Roboto,sans-serif;font-size:12px;font-weight:200">10</text><text x="0" y="95.735" fill="#32313F" stroke="none" stroke-width="1" dx="0em" dy=".3em" transform="translate(20, 0)" style="text-anchor:end;visibility:inherit;font-family:Roboto,sans-serif;font-size:12px;font-weight:200">15</text><text x="0" y="78.711" fill="#32313F" stroke="none" stroke-width="1" dx="0em" dy=".3em" transform="translate(20, 0)" style="text-anchor:end;visibility:hidden;font-family:Roboto,sans-serif;font-size:12px;font-weight:200">20</text><text x="0" y="61.687" fill="#32313F" stroke="none" stroke-width="1" dx="0em" dy=".3em" transform="translate(20, 0)" style="text-anchor:end;visibility:inherit;font-family:Roboto,sans-serif;font-size:12px;font-weight:200">25</text><text x="0" y="44.663" fill="#32313F" stroke="none" stroke-width="1" dx="0em" dy=".3em" transform="translate(20, 0)" style="text-anchor:end;visibility:hidden;font-family:Roboto,sans-serif;font-size:12px;font-weight:200">30</text><text x="0" y="27.639" fill="#32313F" stroke="none" stroke-width="1" dx="0em" dy=".3em" transform="translate(20, 0)" style="text-anchor:end;visibility:inherit;font-family:Roboto,sans-serif;font-size:12px;font-weight:200">35</text><text x="0" y="10.615" fill="#32313F" stroke="none" stroke-width="1" dx="0em" dy=".3em" transform="translate(20, 0)" style="text-anchor:end;visibility:hidden;font-family:Roboto,sans-serif;font-size:12px;font-weight:200">40</text></g><line x1="30" x2="30" y1="0" y2="176" fill="#000" stroke="#CCC" stroke-width="1"/></g></g><g clip-path="url(#clip_0)" transform="translate(30, 0)"><clipPath id="clip_0"><rect width="300" height="176"/></clipPath><g><g><g><line x1="16.58" x2="16.58" y1="0" y2="176" fill="#000" stroke="#3C3C3C" stroke-width="1" opacity=".25"/><line x1="38.344" x2="38.344" y1="0" y2="176" fill="#000" stroke="#3C3C3C" stroke-width="1" opacity=".25"/><line x1="60.107" x2="60.107" y1="0" y2="176" fill="#000" stroke="#3C3C3C" stroke-width="1" opacity=".25"/><line x1="81.871" x2="81.871" y1="0" y2="176" fill="#000" stroke="#3C3C3C" stroke-width="1" opacity=".25"/><line x1="103.635" x2="103.635" y1="0" y2="176" fill="#000" stroke="#3C3C3C" stroke-width="1" opacity=".25"/><line x1="125.399" x2="125.399" y1="0" y2="176" fill="#000" stroke="#3C3C3C" stroke-width="1" opacity=".25"/><line x1="147.162" x2="147.162" y1="0" y2="176" fill="#000" stroke="#3C3C3C" stroke-width="1" opacity=".25"/><line x1="168.926" x2="168.926" y1="0" y2="176" fill="#000" stroke="#3C3C3C" stroke-width="1" opacity=".25"/><line x1="190.69" x2="190.69" y1="0" y2="176" fill="#000" stroke="#3C3C3C" stroke-width="1" opacity=".25"/><line x1="212.454" x2="212.454" y1="0" y2="176" fill="#000" stroke="#3C3C3C" stroke-width="1" opacity=".25"/><line x1="234.218" x2="234.218" y1="0" y2="176" fill="#000" stroke="#3C3C3C" stroke-width="1" opacity=".25"/><line x1="255.981" x2="255.981" y1="0" y2="176" fill="#000" stroke="#3C3C3C" stroke-width="1" opacity=".25"/><line x1="277.745" x2="277.745" y1="0" y2="176" fill="#000" stroke="#3C3C3C" stroke-width="1" opacity=".25"/><line x1="299.509" x2="299.509" y1="0" y2="176" fill="#000" stroke="#3C3C3C" stroke-width="1" opacity=".25"/></g><g><line x1="0" x2="300" y1="163.832" y2="163.832" fill="#000" stroke="#3C3C3C" stroke-width="1" opacity=".25"/><line x1="0" x2="300" y1="146.808" y2="146.808" fill="#000" stroke="#3C3C3C" stroke-width="1" opacity=".25"/><line x1="0" x2="300" y1="129.784" y2="129.784" fill="#000" stroke="#3C3C3C" stroke-width="1" opacity=".25"/><line x1="0" x2="300" y1="112.759" y2="112.759" fill="#000" stroke="#3C3C3C" stroke-width="1" opacity=".25"/><line x1="0" x2="300" y1="95.735" y2="95.735" fill="#000" stroke="#3C3C3C" stroke-width="1" opacity=".25"/><line x1="0" x2="300" y1="78.711" y2="78.711" fill="#000" stroke="#3C3C3C" stroke-width="1" opacity=".25"/><line x1="0" x2="300" y1="61.687" y2="61.687" fill="#000" stroke="#3C3C3C" stroke-width="1" opacity=".25"/><line x1="0" x2="300" y1="44.663" y2="44.663" fill="#000" stroke="#3C3C3C" stroke-width="1" opacity=".25"/><line x1="0" x2="300" y1="27.639" y2="27.639" fill="#000" stroke="#3C3C3C" stroke-width="1" opacity=".25"/><line x1="0" x2="300" y1="10.615" y2="10.615" fill="#000" stroke="#3C3C3C" stroke-width="1" opacity=".25"/></g></g></g><g><g><line x1="0" x2="300" y1="146.808" y2="146.808" fill="#000" stroke="#999" stroke-width="1.5"/></g></g><g><g><line x1="38.344" x2="38.344" y1="0" y2="176" fill="#000" stroke="#999" stroke-width="1.5"/></g></g><g><g><g><g><g><path style="fill:none" fill="none" stroke="#FF7043" stroke-width="2" d="M38.343629770397314,11.025610614739906L49.22551181159888,52.000930078763666L60.107393852800435,98.71447340260458L70.98927589400199,111.58364321132369L81.87115793520354,115.24325255363544L92.7530399764051,117.64297498580831L103.63492201760666,120.22134902790613L114.5168040588082,121.11595624316323L125.39868610000975,122.9640436510043L136.28056814121132,123.29111646884033L147.16245018241287,124.88187853846492L158.04433222361442,124.75627949817518L168.92621426481597,126.23579141542612L179.80809630601752,125.84035113095184L190.68997834721907,127.24229333029633L201.57186038842065,126.76741462798441L212.4537424296222,128.13486137343045L223.33562447082375,127.46155303985452L234.21750651202532,128.81283739797254L245.09938855322687,128.0228124370724L255.98127059442842,129.36353563702176"/></g></g></g></g></g></g><g clip-path="url(#clip_1)" transform="translate(30, 176)"><clipPath id="clip_1"><rect width="300" height="24"/></clipPath><g><g><line x1="16.58" x2="16.58" y1="0" y2="5" fill="#000" stroke="#CCC" stroke-width="1" style="visibility:inherit"/><line x1="38.344" x2="38.344" y1="0" y2="5" fill="#000" stroke="#CCC" stroke-width="1" style="visibility:inherit"/><line x1="60.107" x2="60.107" y1="0" y2="5" fill="#000" stroke="#CCC" stroke-width="1" style="visibility:inherit"/><line x1="81.871" x2="81.871" y1="0" y2="5" fill="#000" stroke="#CCC" stroke-width="1" style="visibility:inherit"/><line x1="103.635" x2="103.635" y1="0" y2="5" fill="#000" stroke="#CCC" stroke-width="1" style="visibility:inherit"/><line x1="125.399" x2="125.399" y1="0" y2="5" fill="#000" stroke="#CCC" stroke-width="1" style="visibility:inherit"/><line x1="147.162" x2="147.162" y1="0" y2="5" fill="#000" stroke="#CCC" stroke-width="1" style="visibility:inherit"/><line x1="168.926" x2="168.926" y1="0" y2="5" fill="#000" stroke="#CCC" stroke-width="1" style="visibility:inherit"/><line x1="190.69" x2="190.69" y1="0" y2="5" fill="#000" stroke="#CCC" stroke-width="1" style="visibility:inherit"/><line x1="212.454" x2="212.454" y1="0" y2="5" fill="#000" stroke="#CCC" stroke-width="1" style="visibility:inherit"/><line x1="234.218" x2="234.218" y1="0" y2="5" fill="#000" stroke="#CCC" stroke-width="1" style="visibility:inherit"/><line x1="255.981" x2="255.981" y1="0" y2="5" fill="#000" stroke="#CCC" stroke-width="1" style="visibility:inherit"/><line x1="277.745" x2="277.745" y1="0" y2="5" fill="#000" stroke="#CCC" stroke-width="1" style="visibility:inherit"/><line x1="299.509" x2="299.509" y1="0" y2="5" fill="#000" stroke="#CCC" stroke-width="1" style="visibility:inherit"/></g><g><text x="16.58" y="0" fill="#32313F" stroke="none" stroke-width="1" dx="0em" dy=".95em" transform="translate(0, 8)" style="text-anchor:middle;visibility:inherit;font-family:Roboto,sans-serif;font-size:12px;font-weight:200">-2</text><text x="38.344" y="0" fill="#32313F" stroke="none" stroke-width="1" dx="0em" dy=".95em" transform="translate(0, 8)" style="text-anchor:middle;visibility:inherit;font-family:Roboto,sans-serif;font-size:12px;font-weight:200">0</text><text x="60.107" y="0" fill="#32313F" stroke="none" stroke-width="1" dx="0em" dy=".95em" transform="translate(0, 8)" style="text-anchor:middle;visibility:inherit;font-family:Roboto,sans-serif;font-size:12px;font-weight:200">2</text><text x="81.871" y="0" fill="#32313F" stroke="none" stroke-width="1" dx="0em" dy=".95em" transform="translate(0, 8)" style="text-anchor:middle;visibility:inherit;font-family:Roboto,sans-serif;font-size:12px;font-weight:200">4</text><text x="103.635" y="0" fill="#32313F" stroke="none" stroke-width="1" dx="0em" dy=".95em" transform="translate(0, 8)" style="text-anchor:middle;visibility:inherit;font-family:Roboto,sans-serif;font-size:12px;font-weight:200">6</text><text x="125.399" y="0" fill="#32313F" stroke="none" stroke-width="1" dx="0em" dy=".95em" transform="translate(0, 8)" style="text-anchor:middle;visibility:inherit;font-family:Roboto,sans-serif;font-size:12px;font-weight:200">8</text><text x="147.162" y="0" fill="#32313F" stroke="none" stroke-width="1" dx="0em" dy=".95em" transform="translate(0, 8)" style="text-anchor:middle;visibility:inherit;font-family:Roboto,sans-serif;font-size:12px;font-weight:200">10</text><text x="168.926" y="0" fill="#32313F" stroke="none" stroke-width="1" dx="0em" dy=".95em" transform="translate(0, 8)" style="text-anchor:middle;visibility:inherit;font-family:Roboto,sans-serif;font-size:12px;font-weight:200">12</text><text x="190.69" y="0" fill="#32313F" stroke="none" stroke-width="1" dx="0em" dy=".95em" transform="translate(0, 8)" style="text-anchor:middle;visibility:inherit;font-family:Roboto,sans-serif;font-size:12px;font-weight:200">14</text><text x="212.454" y="0" fill="#32313F" stroke="none" stroke-width="1" dx="0em" dy=".95em" transform="translate(0, 8)" style="text-anchor:middle;visibility:inherit;font-family:Roboto,sans-serif;font-size:12px;font-weight:200">16</text><text x="234.218" y="0" fill="#32313F" stroke="none" stroke-width="1" dx="0em" dy=".95em" transform="translate(0, 8)" style="text-anchor:middle;visibility:inherit;font-family:Roboto,sans-serif;font-size:12px;font-weight:200">18</text><text x="255.981" y="0" fill="#32313F" stroke="none" stroke-width="1" dx="0em" dy=".95em" transform="translate(0, 8)" style="text-anchor:middle;visibility:inherit;font-family:Roboto,sans-serif;font-size:12px;font-weight:200">20</text><text x="277.745" y="0" fill="#32313F" stroke="none" stroke-width="1" dx="0em" dy=".95em" transform="translate(0, 8)" style="text-anchor:middle;visibility:inherit;font-family:Roboto,sans-serif;font-size:12px;font-weight:200">22</text><text x="299.509" y="0" fill="#32313F" stroke="none" stroke-width="1" dx="0em" dy=".95em" transform="translate(0, 8)" style="text-anchor:middle;visibility:hidden;font-family:Roboto,sans-serif;font-size:12px;font-weight:200">24</text></g><line x1="0" x2="300" y1="0" y2="0" fill="#000" stroke="#CCC" stroke-width="1"/></g></g></g></g></svg>